{"title":"Indiana Jones 4 Crystal Skull (2008)(DIVX)(NL SUBS) 2Lions-Team","uid":5876444,"size":1467433219,"categoryP":"video","categoryS":"movies","magnet":"?xt=urn:btih:bd9619177aa9ccad00e8fea11cbbd026acede1db&amp;dn=Indiana+Jones+4+Crystal+Skull+%282008%29%28DIVX%29%28NL+SUBS%29+2Lions-Team&amp;tr=udp%3A%2F%2Ftracker.openbittorrent.com%3A80&amp;tr=udp%3A%2F%2Fopen.demonii.com%3A1337&amp;tr=udp%3A%2F%2Ftracker.coppersurfer.tk%3A6969&amp;tr=udp%3A%2F%2Fexodus.desync.com%3A6969","seeders":2,"leechers":0,"uploader":"Pioen","files":-1,"time":1286657127,"description":"Indiana Jones 4 Crystal Skull (2008)       \n\nVerenigde Staten\nActie / Avontuur\n122 minuten\n\ngeregisseerd door Steven Spielberg\nmet Harrison Ford, Cate Blanchett en Shia LaBeouf\n\n1957. De Koude Oorlog is op zijn hoogtepunt. Nadat hij op een afgelegen vliegveld ternauwernood ontsnapt aan een groep snode Sovjet agenten, ontmoet de avontuurlijke archeoloog Indiana Jones (Harrison Ford) de jonge, opstandige Mutt (Shia LaBeouf) die zijn hulp nodig heeft bij een persoonlijke missie. In ruil daarvoor maakt Indy grote kans op het vinden van de Crystal Skull van Akator, een legendarisch en fascinerend voorwerp omringd door bijgeloof en gevaar. Indy en Mutt reizen naar de uithoeken van Peru, maar merken al snel dat zij niet de enigen zijn die de Crystal Skull zoeken.\n\n\nEnglish\n\nStoryline\nDuring the Cold War, Soviet agents watch Professor Henry Jones when a young man brings him a coded message from an aged, demented colleague, Henry Oxley. Led by the brilliant Irina Spalko, the Soviets tail Jones and the young man, Mutt, to Peru. With Oxley's code, they find a legendary skull made of a single piece of quartz. If Jones can deliver the skull to its rightful place, all may be well; but if Irina takes it to its origin, she'll gain powers that could endanger the West. Aging professor and young buck join forces with a woman from Jones's past to face the dangers of the jungle, Russia, and the supernatural. Written by\n\n\n\nSpotinformatie \nCategorie : Beeld \nFormaat ..: DivX \nBron .....: Retail\nAudio ....: English \nSubs .... : Nederlands (SRT) (instelbaar)\nThanks... : cjdijk\n\nFormat                           : AVI\nFormat/Info                      : Audio Video Interleave\nFile size                        : 700 MiB\nDuration                         : 1h 8mn\nOverall bit rate                 : 1 420 Kbps\nWriting application              : VirtualDubMod 1.5.4.1 (build 2178/release)\nWriting library                  : VirtualDubMod build 2178/release\n\nVideo\nID                               : 0\nFormat                           : MPEG-4 Visual\nFormat profile                   : Streaming Video@L1\nFormat settings, BVOP            : Yes\nFormat settings, QPel            : No\nFormat settings, GMC             : No warppoints\nFormat settings, Matrix          : Custom\nCodec ID                         : XVID\nCodec ID/Hint                    : XviD\nDuration                         : 1h 8mn\nBit rate                         : 965 Kbps\nWidth                            : 720 pixels\nHeight                           : 304 pixels\nDisplay aspect ratio             : 2.35\nFrame rate                       : 25.000 fps\nResolution                       : 24 bits\nColorimetry                      : 4:2:0\nScan type                        : Progressive\nBits/(Pixel*Frame)               : 0.176\nStream size                      : 476 MiB (68%)\nWriting library                  : XviD 1.0.0 (UTC 2004-05-09)\n\nAudio\nID                               : 1\nFormat                           : AC-3\nFormat/Info                      : Audio Coding 3\nCodec ID                         : 2000\nDuration                         : 1h 8mn\nBit rate mode                    : Constant\nBit rate                         : 448 Kbps\nChannel(s)                       : 6 channels\nChannel positions                : Front: L C R, Surround: L R, LFE\nSampling rate                    : 48.0 KHz\nStream size                      : 221 MiB (32%)\nAlignment                        : Split accross interleaves\nInterleave, duration             : 96 ms (2.40 video frames)\nInterleave, preload duration     : 96 ms\nLanguage                         : English / English\n\n  \n  \nGenre : Actie\nAvontuur\n\n\nWeblink : &lt;a href=&quot; http://www.moviemeter.nl/film/44611&quot; rel=&quot;nofollow&quot; target=&quot;_NEW&quot;&gt; http://www.moviemeter.nl/film/44611&lt;/a&gt; \nWeblink : &lt;a href=&quot; http://www.imdb.com/title/tt0367882&quot; rel=&quot;nofollow&quot; target=&quot;_NEW&quot;&gt; http://www.imdb.com/title/tt0367882&lt;/a&gt;\n\n*****************************************\n\nBrought to you by \n2Lions Team\n\nmeer zien??\nKom dan eens kijken op ons Forum \n                   &lt;a href=&quot;\nhttp://www.2lions-site.nl&quot; rel=&quot;nofollow&quot; target=&quot;_NEW&quot;&gt;\nhttp://www.2lions-site.nl&lt;/a&gt;  \n\n2Lions the site to be for all your Dutch MOVIES and more\n\n******************************************\n\n\nDON T HIT AND RUN Niet gelijk afhaken als de FILM binnen is blijf seeden. \n\nDon`t quit after you finished the download, but keep seeding\n\n\nThere are fake torrents from uploaders who use our team name.\nThose are not ours, or members from our team.\nWe 2Lions-Team are not responsible for the fake posts on our name\n\nWij 2Lions-Team zijn niet verantwoordelijk voor die zieke FAKE posten die op onze naam worden gedaan\n\nPlease check our site !!!\nTo the fakers Get a Live\n \n \n \n\n\n \n \n \n","torrent":{"xt":"urn:btih:bd9619177aa9ccad00e8fea11cbbd026acede1db","amp;dn":"Indiana+Jones+4+Crystal+Skull+%282008%29%28DIVX%29%28NL+SUBS%29+2Lions-Team","amp;tr":["udp%3A%2F%2Ftracker.openbittorrent.com%3A80","udp%3A%2F%2Fopen.demonii.com%3A1337","udp%3A%2F%2Ftracker.coppersurfer.tk%3A6969","udp%3A%2F%2Fexodus.desync.com%3A6969"],"infoHash":"bd9619177aa9ccad00e8fea11cbbd026acede1db","infoHashBuffer":{"type":"Buffer","data":[189,150,25,23,122,169,204,173,0,232,254,161,28,187,208,38,172,237,225,219]},"announce":[],"urlList":[]}}